# xmcd
#
# Track frame offsets: 
#        150
#        11160
#        35700
#        48915
#        62115
#        76560
#        98790
#        128250
#        144735
#        156420
#        170565
#        184860
#        200070
#
# Disc length: 2831 seconds
#
# Revision: 0
# Processed by: cddbd v1.5.2PL0 Copyright (c) Steve Scherf et al.
# Submitted via: ExactAudioCopy v1.0b4
#
DISCID=af0b0d0d
DTITLE=Alabama Lovesnakes - Everybody's Gotta Go
DYEAR=2016
DGENRE=Blues Rock
TTITLE0=Prison Of Love
TTITLE1=Your Little Key
TTITLE2=Something You Got
TTITLE3=Searching High And Low
TTITLE4=I Need You Tonight To Keep The 
TTITLE5=Everybody's Gotta Go
TTITLE6=The Matters Of The Heart
TTITLE7=Daddy's Beard
TTITLE8=Got To Get Back To New Orleans
TTITLE9=Everything's Gonna Be Alright
TTITLE10=I Got To Take You Back Home
TTITLE11=Back In Town
TTITLE12=Kokobello Blues
EXTD=
EXTT0=
EXTT1=
EXTT2=
EXTT3=
EXTT4=
EXTT5=
EXTT6=
EXTT7=
EXTT8=
EXTT9=
EXTT10=
EXTT11=
EXTT12=
PLAYORDER=
